<?xml version="1.0" standalone="no"?><!DOCTYPE svg PUBLIC "-//W3C//DTD SVG 1.1//EN" "http://www.w3.org/Graphics/SVG/1.1/DTD/svg11.dtd"><svg t="1559547538057" class="icon" style="" viewBox="0 0 1024 1024" version="1.1" xmlns="http://www.w3.org/2000/svg" p-id="1022" xmlns:xlink="http://www.w3.org/1999/xlink" width="128" height="128"><defs><style type="text/css"></style></defs><path d="M962.06616925 658.90829865l0.19746482-185.72834679-14.46706472-0.01490337 0-0.15523901L550.35032613 473.00980948l0.0968695-91.012478L605.03804162 381.99733148c31.55084356 0 57.12807709-25.57723353 57.12807709-57.12807707L662.16611871 57.25650215c0-31.55084356-25.57723353-57.12807709-57.12807709-57.12807708L434.28966977 0.12842386c-31.55084356 0-57.12807709 25.57723353-57.12807709 57.12807708l0 267.6139938c0 31.55084356 25.57723353 57.12807709 57.12807709 57.12807709l49.09785634 0-0.09686949 91.01247798L129.41326685 473.01105103l0 0.16890083-31.49992452-0.03353137-0.19498053 183.95613442-6.195913 0c-31.55084356 0-57.12807709 25.57723353-57.12807708 57.12807708L34.39437172 981.84338424c0 31.55084356 25.57723353 57.12807709 57.12807708 57.12807708l170.7496134 0c31.55084356 0 57.12807709-25.57723353 57.12807709-57.12807708L319.40013929 714.22939045c0-31.55084356-25.57723353-57.12807709-57.12807709-57.12807709L129.98578934 657.10131215 130.12985204 521.44199968l353.10864521 0-0.14033686 131.93356902-50.07524325 0c-31.55084356 0-57.12807709 25.57723353-57.12807709 57.12807709l0 267.61399379c0 31.55084356 25.57723353 57.12807709 57.12807709 57.12807709l170.7496134 0c31.55084356 0 57.12807709-25.57723353 57.12807709-57.12807709L660.90060763 710.50364579c0-31.55084356-25.57723353-57.12807709-57.12807709-57.12807709L550.15782992 653.3755687l0.14033684-131.93356902 379.64587918 0-0.14406269 135.65931247L777.00969874 657.10131215c-31.55084356 0-57.12807709 25.57723353-57.12807709 57.12807708L719.88162165 981.84338424c0 31.55084356 25.57723353 57.12807709 57.12807709 57.12807708l170.7496134 0c31.55084356 0 57.12807709-25.57723353 57.12807708-57.12807708L1004.88738922 714.22939045C1004.88738922 687.61888358 986.6933383 665.25945067 962.06616925 658.90829865z" p-id="1023"></path></svg>